<?xml version="1.0" encoding="UTF-8"?>
<svg version="1.1" xmlns="http://www.w3.org/2000/svg" width="2000" height="2000">
<path d="M0 0 C660 0 1320 0 2000 0 C2000 660 2000 1320 2000 2000 C1340 2000 680 2000 0 2000 C0 1340 0 680 0 0 Z " fill="#FEFEFF" transform="translate(0,0)"/>
<path d="M0 0 C6.7840803 0.27803608 12.23606421 3.16747332 18.25 6.125 C19.33829102 6.65488525 20.42658203 7.18477051 21.54785156 7.73071289 C62.69648842 28.02604756 101.18055417 53.39926902 137 82 C138.299375 83.02480469 138.299375 83.02480469 139.625 84.0703125 C145.96416069 89.08881472 152.13889936 94.29468068 158.28808594 99.54248047 C159.99222891 100.99338371 161.70256337 102.4366921 163.4140625 103.87890625 C175.06980716 113.73612858 186.21586525 124.09190533 196.9296875 134.96484375 C198.62711417 136.63344619 200.32599037 138.14846226 202.1875 139.625 C205.08688154 142.07336663 207.36598753 144.68093856 209.81640625 147.5625 C212.59485811 150.66402766 215.53822072 153.57465148 218.5 156.5 C223.21698256 161.1752979 227.70477429 165.93180933 232 171 C232.93731771 172.0755142 233.87628353 173.14959309 234.81640625 174.22265625 C246.17754747 187.20781658 257.29733645 200.41584527 267.66015625 214.21679688 C268.6021977 215.47056341 269.54783803 216.72162999 270.49609375 217.97070312 C316.33529826 278.43586408 351.6313752 346.1736229 377 417.5625 C377.22601898 418.19808838 377.45203796 418.83367676 377.68490601 419.48852539 C397.99804915 476.82613489 410.11226957 536.67163078 417 597 C417.14034668 598.20060059 417.28069336 599.40120117 417.42529297 600.63818359 C428.14988787 692.76359069 416.50102025 784.85904144 388 873 C387.61473145 874.20881836 387.22946289 875.41763672 386.83251953 876.66308594 C371.83000326 923.6638887 352.38651312 969.84320335 327.46582031 1012.46826172 C326.14112455 1014.75625223 324.85514041 1017.05982293 323.5859375 1019.37890625 C307.20112468 1049.02021505 287.01130691 1077.21019048 265.43261719 1103.26318359 C263.37117868 1105.76234405 261.34583293 1108.29045371 259.3125 1110.8125 C255.4690485 1115.50926826 251.42828252 1119.99883965 247.3203125 1124.46484375 C245.42718797 1126.53325758 243.57748296 1128.62405876 241.75 1130.75 C233.08417705 1140.68252097 223.92737477 1150.16585022 214.625 1159.5 C213.88854248 1160.2410498 213.15208496 1160.98209961 212.39331055 1161.74560547 C208.32464276 1165.80281222 204.16125422 1169.68578108 199.80859375 1173.43652344 C197.38627304 1175.53054906 195.03933328 1177.70238885 192.6875 1179.875 C187.28529859 1184.79618347 181.68770102 1189.41501653 176 1194 C174.76994984 1195.00934094 173.5408379 1196.01982598 172.3125 1197.03125 C102.62433809 1254.30162049 22.30408657 1293.09346273 -62.86962891 1321.29425049 C-64.70304894 1321.90162603 -66.53523932 1322.51271116 -68.3671875 1323.12451172 C-82.01261963 1327.64385238 -95.94538276 1331.10829153 -109.875 1334.625 C-110.78359772 1334.85561127 -111.69219543 1335.08622253 -112.62832642 1335.32382202 C-168.4679931 1349.43909949 -225.46829418 1356.77965728 -282.79296875 1361.16796875 C-283.70119385 1361.23756805 -284.60941895 1361.30716736 -285.54516602 1361.37887573 C-287.37642114 1361.51707625 -289.20794263 1361.65178355 -291.03968811 1361.7833252 C-293.10839388 1361.93474046 -295.17627221 1362.09770587 -297.24339294 1362.26940918 C-308.66788462 1363.15211059 -320.05928894 1363.14553094 -331.51171875 1363.1328125 C-333.69090282 1363.13348891 -335.87008681 1363.13446171 -338.04927063 1363.13571167 C-342.61057251 1363.13717937 -347.17185472 1363.13506847 -351.7331543 1363.13037109 C-357.46439273 1363.12474485 -363.19558403 1363.12801131 -368.92682076 1363.13380718 C-389.74797923 1363.151723 -410.56443009 1363.13607251 -431.37890625 1362.55859375 C-432.44688729 1362.5298712 -432.44688729 1362.5298712 -433.53644371 1362.50056839 C-446.06540389 1362.15148075 -458.53297717 1361.28139508 -471 1360 C-471 1359.67 -471 1359.34 -471 1359 C-470.02691895 1358.96036133 -469.05383789 1358.92072266 -468.05126953 1358.87988281 C-446.35452437 1357.97199283 -424.89848564 1356.42830144 -403.36621094 1353.57104492 C-400.19479191 1353.15096907 -397.02092808 1352.75841696 -393.84472656 1352.3762207 C-378.65640141 1350.5195174 -363.65302508 1347.9288161 -348.625 1345.0625 C-347.37952393 1344.82622894 -346.13404785 1344.58995789 -344.85083008 1344.3465271 C-311.72387731 1338.02902371 -278.54215105 1330.76608568 -246.49414062 1320.14599609 C-243.10268271 1319.03367752 -239.7026512 1317.95366957 -236.29832458 1316.88162231 C-157.8072733 1292.1546258 -84.01941169 1257.50285767 -16 1211 C-15.11538086 1210.39639648 -14.23076172 1209.79279297 -13.31933594 1209.17089844 C-2.20393915 1201.55351472 8.45989544 1193.39156291 19 1185 C19.69512695 1184.44666992 20.39025391 1183.89333984 21.10644531 1183.32324219 C41.31628498 1167.18030903 60.30803594 1149.88257207 78.56445312 1131.56591797 C80.52358656 1129.60134799 82.48811644 1127.64228552 84.453125 1125.68359375 C90.51591397 1119.62395701 96.46400638 1113.55133769 102 1107 C103.4132355 1105.4551874 104.82940409 1103.91304675 106.25 1102.375 C110.87478873 1097.2546982 115.09847942 1091.86986885 119.32421875 1086.421875 C121.59428184 1083.50034649 123.93771803 1080.64990183 126.3125 1077.8125 C132.8931184 1069.80999799 138.9208093 1061.38532589 145 1053 C145.52529297 1052.28005859 146.05058594 1051.56011719 146.59179688 1050.81835938 C155.01617362 1039.24974935 162.58820412 1027.23687501 170 1015 C170.82249751 1013.65469156 171.64537782 1012.30961704 172.46875 1010.96484375 C204.299182 958.74476219 227.24415846 902.4999605 245.375 844.25 C245.66028564 843.33742432 245.94557129 842.42484863 246.23950195 841.48461914 C251.77508578 823.29399136 256.09963237 804.7874119 260 786.1875 C260.21410522 785.16998657 260.42821045 784.15247314 260.64880371 783.10412598 C262.12450445 776.07451872 263.57334742 769.03971965 265 762 C265.16153564 761.20426575 265.32307129 760.40853149 265.48950195 759.58868408 C270.26351671 735.94073282 273.1011253 712.09369016 275.80078125 688.1328125 C275.96127708 686.71438553 275.96127708 686.71438553 276.12501526 685.26730347 C276.87196923 678.52061042 277.46502733 671.76664384 278 665 C277.51926025 666.32330322 277.51926025 666.32330322 277.02880859 667.67333984 C253.58397316 732.06958996 225.74148525 795.46106067 192.43408203 855.40087891 C190.98796799 858.02180674 189.56665672 860.65475905 188.15234375 863.29296875 C180.77314299 877.03234373 172.91420211 890.45887706 164.89697266 903.83203125 C163.15696836 906.73786081 161.42613969 909.64888255 159.69921875 912.5625 C153.37681058 923.20811197 146.82545936 933.67020113 140 944 C139.40171387 944.90766113 138.80342773 945.81532227 138.18701172 946.75048828 C117.3643206 978.30144894 95.44028312 1009.02965539 71.43554688 1038.24853516 C70.16412789 1039.79975281 68.9016989 1041.35832934 67.640625 1042.91796875 C58.68489002 1053.98189682 49.31822444 1064.69181788 39.6328125 1075.12109375 C37.68194112 1077.25431661 35.78879341 1079.40707225 33.9074707 1081.59960938 C29.74755996 1086.3584387 25.3211967 1090.82274422 20.84765625 1095.28515625 C19.98869247 1096.14507675 19.1297287 1097.00499725 18.24473572 1097.89097595 C16.43822985 1099.69815861 14.63047538 1101.50409392 12.8215332 1103.30883789 C10.0706319 1106.05438393 7.32510779 1108.80522546 4.58007812 1111.55664062 C2.81542468 1113.3206332 1.05046103 1115.0843155 -0.71484375 1116.84765625 C-1.93239601 1118.06824486 -1.93239601 1118.06824486 -3.17454529 1119.31349182 C-7.95793564 1124.07749252 -12.86802232 1128.6150629 -18 1133 C-19.22632793 1134.06908921 -20.45173086 1135.13924138 -21.67578125 1136.2109375 C-76.47958299 1183.95335153 -137.36099231 1221.70806286 -206 1246 C-226.39804679 1221.01375359 -239.95200686 1190.41223692 -250 1160 C-250.41636719 1158.76378906 -250.83273437 1157.52757812 -251.26171875 1156.25390625 C-256.22800946 1140.84466434 -259.76060393 1125.0230206 -262 1109 C-262.10441406 1108.29713867 -262.20882813 1107.59427734 -262.31640625 1106.87011719 C-272.52559966 1036.47191324 -248.704971 965.33806738 -207.17578125 908.890625 C-197.3519459 895.83921 -186.90134731 883.29057926 -176.453125 870.73828125 C-169.53264448 862.40606493 -162.82187778 853.95280197 -156.28515625 845.31640625 C-153.46993409 841.60085456 -150.60017661 837.93102394 -147.71826172 834.26708984 C-141.60250935 826.48111829 -135.74341207 818.56569882 -130.09350586 810.43603516 C-128.17433437 807.67739248 -126.24387485 804.92779729 -124.29345703 802.19116211 C-116.93316094 791.85964214 -109.81577037 781.37897796 -102.79101562 770.81689453 C-101.00474286 768.13212851 -99.21355664 765.45068981 -97.421875 762.76953125 C-89.76632491 751.29103142 -82.30627498 739.70363111 -75 728 C-74.2687401 726.83201707 -73.53745948 725.66404711 -72.80615234 724.49609375 C-62.84285898 708.53487285 -53.28019736 692.36698427 -44 676 C-43.40977051 674.9598877 -42.81954102 673.91977539 -42.21142578 672.84814453 C1.01516109 596.51893556 38.04299684 517.53686563 66.4375 434.5 C66.72505157 433.65925934 67.01260315 432.81851868 67.30886841 431.95230103 C73.66202258 413.33201245 79.55054249 394.67057217 84.5 375.625 C84.737117 374.71646271 84.97423401 373.80792542 85.21853638 372.87185669 C91.01248433 350.60931152 95.69632346 328.27841323 99.140625 305.5234375 C99.70992718 301.76670511 100.35010678 298.03204118 101.046875 294.296875 C102.31491093 287.425293 103.05662738 280.53940375 103.74121094 273.58886719 C103.91355838 271.86474237 104.09388441 270.14139625 104.28222656 268.41894531 C105.89051027 253.56276528 106.18845696 238.80353908 106.1875 223.875 C106.18840637 222.94300781 106.18931274 222.01101563 106.19024658 221.05078125 C106.18995058 218.36450496 106.18098787 215.67842977 106.16796875 212.9921875 C106.16676529 212.18893036 106.16556183 211.38567322 106.1643219 210.55807495 C106.12614593 205.94156429 105.75894705 201.55519642 105 197 C104.07960938 197.79921875 103.15921875 198.5984375 102.2109375 199.421875 C94.07595186 206.48159005 85.91829097 213.51377249 77.73388672 220.51611328 C74.82105958 223.00895521 71.91063078 225.50459434 69 228 C65.5128866 230.98964835 62.02532174 233.97875858 58.53515625 236.96484375 C52.50681237 242.12423716 46.49264094 247.29916091 40.5 252.5 C33.93385589 258.19856584 27.34007376 263.86404973 20.73388672 269.51611328 C17.82105954 272.00895524 14.91065939 274.50462766 12 277 C10.83334482 278.0000134 9.66667816 279.00001341 8.5 280 C7.9225 280.495 7.345 280.99 6.75 281.5 C-68.5 346 -68.5 346 -70.24975586 347.49975586 C-71.41728228 348.50051606 -72.5847627 349.50132992 -73.75219727 350.50219727 C-76.65533629 352.99100676 -79.55924949 355.47890091 -82.46484375 357.96484375 C-88.49318763 363.12423716 -94.50735906 368.29916091 -100.5 373.5 C-107.06614411 379.19856584 -113.65992624 384.86404973 -120.26611328 390.51611328 C-123.17894046 393.00895524 -126.08934061 395.50462766 -129 398 C-130.16665518 399.0000134 -131.33332184 400.00001341 -132.5 401 C-133.0775 401.495 -133.655 401.99 -134.25 402.5 C-209.49999999 466.99999999 -209.49999999 466.99999999 -211.24975586 468.49975586 C-212.41728228 469.50051606 -213.5847627 470.50132992 -214.75219727 471.50219727 C-217.65533629 473.99100676 -220.55924949 476.47890091 -223.46484375 478.96484375 C-229.49318763 484.12423716 -235.50735906 489.29916091 -241.5 494.5 C-248.06614411 500.19856584 -254.65992624 505.86404973 -261.26611328 511.51611328 C-264.17894046 514.00895524 -267.08934061 516.50462766 -270 519 C-271.16665518 520.0000134 -272.33332184 521.00001341 -273.5 522 C-274.0775 522.495 -274.655 522.99 -275.25 523.5 C-364.50000001 600.00000001 -364.50000001 600.00000001 -366.24975586 601.49975586 C-367.41728228 602.50051606 -368.5847627 603.50132992 -369.75219727 604.50219727 C-372.65533629 606.99100676 -375.55924949 609.47890091 -378.46484375 611.96484375 C-384.49318763 617.12423716 -390.50735906 622.29916091 -396.5 627.5 C-403.06614411 633.19856584 -409.65992624 638.86404973 -416.26611328 644.51611328 C-419.17894046 647.00895524 -422.08934061 649.50462766 -425 652 C-426.16665518 653.0000134 -427.33332184 654.00001341 -428.5 655 C-429.0775 655.495 -429.655 655.99 -430.25 656.5 C-505.50000001 721.00000001 -505.50000001 721.00000001 -507.24975586 722.49975586 C-508.41728228 723.50051606 -509.5847627 724.50132992 -510.75219727 725.50219727 C-513.65533629 727.99100676 -516.55924949 730.47890091 -519.46484375 732.96484375 C-525.49318763 738.12423716 -531.50735906 743.29916091 -537.5 748.5 C-544.06614411 754.19856584 -550.65992624 759.86404973 -557.26611328 765.51611328 C-560.17894046 768.00895524 -563.08934061 770.50462766 -566 773 C-567.16665518 774.0000134 -568.33332184 775.00001341 -569.5 776 C-570.0775 776.495 -570.655 776.99 -571.25 777.5 C-646.5 842 -646.5 842 -648.24975586 843.49975586 C-649.41728228 844.50051606 -650.5847627 845.50132992 -651.75219727 846.50219727 C-654.65533629 848.99100676 -657.55924949 851.47890091 -660.46484375 853.96484375 C-666.49318763 859.12423716 -672.50735906 864.29916091 -678.5 869.5 C-685.06614411 875.19856584 -691.65992624 880.86404973 -698.26611328 886.51611328 C-701.17894046 889.00895524 -704.08934061 891.50462766 -707 894 C-708.16665518 895.0000134 -709.33332184 896.00001341 -710.5 897 C-711.0775 897.495 -711.655 897.99 -712.25 898.5 C-787.5 963 -787.5 963 -789.24975586 964.49975586 C-790.41728228 965.50051606 -791.5847627 966.50132992 -792.75219727 967.50219727 C-795.65533629 969.99100676 -798.55924949 972.47890091 -801.46484375 974.96484375 C-807.49318763 980.12423716 -813.50735906 985.29916091 -819.5 990.5 C-826.06614411 996.19856584 -832.65992624 1001.86404973 -839.26611328 1007.51611328 C-842.17894046 1010.00895524 -845.08934061 1012.50462766 -848 1015 C-849.16665518 1016.0000134 -850.33332184 1017.00001341 -851.5 1018 C-852.0775 1018.495 -852.655 1018.99 -853.25 1019.5 C-928.5 1084 -928.5 1084 -930.24975586 1085.49975586 C-931.41728228 1086.50051606 -932.5847627 1087.50132992 -933.75219727 1088.50219727 C-936.65533629 1090.99100676 -939.55924949 1093.47890091 -942.46484375 1095.96484375 C-948.49318763 1101.12423716 -954.50735906 1106.29916091 -960.5 1111.5 C-967.06614411 1117.19856584 -973.65992624 1122.86404973 -980.26611328 1128.51611328 C-983.17894046 1131.00895524 -986.08934061 1133.50462766 -989 1136 C-990.16665518 1137.0000134 -991.33332184 1138.00001341 -992.5 1139 C-993.0775 1139.495 -993.655 1139.99 -994.25 1140.5 C-1069.49999999 1204.99999999 -1069.49999999 1204.99999999 -1071.24975586 1206.49975586 C-1072.41728228 1207.50051606 -1073.5847627 1208.50132992 -1074.75219727 1209.50219727 C-1077.65533629 1211.99100676 -1080.55924949 1214.47890091 -1083.46484375 1216.96484375 C-1089.49318763 1222.12423716 -1095.50735906 1227.29916091 -1101.5 1232.5 C-1108.06614411 1238.19856584 -1114.65992624 1243.86404973 -1121.26611328 1249.51611328 C-1124.17894046 1252.00895524 -1127.08934061 1254.50462766 -1130 1257 C-1131.16665518 1258.0000134 -1132.33332184 1259.00001341 -1133.5 1260 C-1134.0775 1260.495 -1134.655 1260.99 -1135.25 1261.5 C-1141.66666667 1267 -1148.08333333 1272.5 -1154.5 1278 C-1155.3672168 1278.74334595 -1155.3672168 1278.74334595 -1156.25195312 1279.50170898 C-1157.41206337 1280.49606605 -1158.5722192 1281.49036992 -1159.73242188 1282.48461914 C-1162.74978862 1285.07050923 -1165.76622426 1287.65747437 -1168.78125 1290.24609375 C-1169.40386719 1290.78041016 -1170.02648438 1291.31472656 -1170.66796875 1291.86523438 C-1171.84795404 1292.87790832 -1173.02766329 1293.89090404 -1174.20703125 1294.90429688 C-1175.01720703 1295.59942383 -1175.01720703 1295.59942383 -1175.84375 1296.30859375 C-1176.30974609 1296.70876709 -1176.77574219 1297.10894043 -1177.25585938 1297.52124023 C-1177.83142578 1298.00923096 -1178.40699219 1298.49722168 -1179 1299 C-1179.74643579 1299.84309817 -1180.49287159 1300.68619635 -1181.26192665 1301.55484295 C-1186.19516007 1305.61107876 -1192.49279743 1304.66929224 -1198.55331421 1304.60127258 C-1199.95268002 1304.60345382 -1201.35204383 1304.6078333 -1202.75139678 1304.61421841 C-1206.59183492 1304.62539148 -1210.43157504 1304.60540948 -1214.27192426 1304.58032811 C-1218.41500638 1304.5587314 -1222.55804929 1304.56604297 -1226.70117188 1304.56983948 C-1233.87774351 1304.57246097 -1241.05408781 1304.55677643 -1248.23060226 1304.52865028 C-1258.60659163 1304.48801125 -1268.9824711 1304.47499265 -1279.35853143 1304.46871033 C-1296.19302207 1304.45776778 -1313.02739155 1304.42449464 -1329.86181641 1304.37719727 C-1346.21467482 1304.33130066 -1362.56750033 1304.29590924 -1378.92041016 1304.2746582 C-1379.92843832 1304.27334459 -1380.93646648 1304.27203097 -1381.97504096 1304.27067754 C-1387.03203303 1304.26415235 -1392.08902533 1304.25783381 -1397.14601779 1304.25161803 C-1439.09742947 1304.19978625 -1481.0487078 1304.11172201 -1523 1304 C-1517.53082841 1298.50913102 -1517.53082841 1298.50913102 -1514.72265625 1296.08984375 C-1514.13411865 1295.58122803 -1513.54558105 1295.0726123 -1512.93920898 1294.54858398 C-1512.01023804 1293.75109741 -1512.01023804 1293.75109741 -1511.0625 1292.9375 C-1510.40644775 1292.37168213 -1509.75039551 1291.80586426 -1509.07446289 1291.22290039 C-1507.05164261 1289.4795918 -1505.02624102 1287.73933085 -1503 1286 C-1502.39381836 1285.47921875 -1501.78763672 1284.9584375 -1501.16308594 1284.421875 C-1497.68988362 1281.43880361 -1494.21277523 1278.46032363 -1490.73388672 1275.48388672 C-1488.40547278 1273.49119453 -1486.07865711 1271.49664138 -1483.75195312 1269.50195312 C-1482.0027877 1268.0023899 -1480.25334729 1266.50314791 -1478.50390625 1265.00390625 C-1476.15658474 1262.99200998 -1473.81033583 1260.97887242 -1471.46484375 1258.96484375 C-1465.29340193 1253.6672344 -1459.10598459 1248.38984001 -1452.89208984 1243.14208984 C-1447.15831236 1238.29603358 -1441.46176847 1233.40686219 -1435.76611328 1228.51611328 C-1432.84557725 1226.00899015 -1429.92267689 1223.50462672 -1427 1221 C-1425.83332184 1220.00001341 -1424.66665518 1219.0000134 -1423.5 1218 C-1411.83333333 1208 -1400.16666667 1198 -1388.5 1188 C-1387.9222583 1187.5047583 -1387.3445166 1187.0095166 -1386.74926758 1186.49926758 C-1385.58518023 1185.50154805 -1384.42095544 1184.50398886 -1383.2565918 1183.5065918 C-1380.29930113 1180.97301257 -1377.34461631 1178.43649863 -1374.39453125 1175.89453125 C-1369.06164678 1171.30393447 -1363.71814055 1166.74238602 -1358.25 1162.3125 C-1353.87492253 1158.76254679 -1349.69450808 1155.04436179 -1345.53125 1151.25 C-1342.02200514 1148.13067124 -1338.36837877 1145.20250867 -1334.71875 1142.25 C-1332.07852271 1140.06498431 -1329.5327028 1137.80828609 -1327 1135.5 C-1322.70008209 1131.58108748 -1318.24080453 1127.90829131 -1313.71875 1124.25 C-1311.07852271 1122.06498431 -1308.5327028 1119.80828609 -1306 1117.5 C-1301.70008209 1113.58108748 -1297.24080453 1109.90829131 -1292.71875 1106.25 C-1290.07852271 1104.06498431 -1287.5327028 1101.80828609 -1285 1099.5 C-1281.68010514 1096.47717579 -1278.30235888 1093.57487839 -1274.8125 1090.75 C-1268.37288007 1085.53481485 -1262.14544597 1080.08668248 -1255.89648438 1074.64648438 C-1252.92144811 1072.06362591 -1249.9305594 1069.49943086 -1246.9375 1066.9375 C-1246.36410889 1066.44660889 -1245.79071777 1065.95571777 -1245.19995117 1065.44995117 C-1244.04469482 1064.46114797 -1242.88934024 1063.47245951 -1241.73388672 1062.48388672 C-1238.82105954 1059.99104476 -1235.91065939 1057.49537234 -1233 1055 C-1231.83334482 1053.9999866 -1230.66667816 1052.99998659 -1229.5 1052 C-1228.9225 1051.505 -1228.345 1051.01 -1227.75 1050.5 C-1221.33333333 1045 -1214.91666667 1039.5 -1208.5 1034 C-1207.63338745 1033.25713745 -1207.63338745 1033.25713745 -1206.74926758 1032.49926758 C-1205.58518023 1031.50154805 -1204.42095544 1030.50398886 -1203.2565918 1029.5065918 C-1200.29930113 1026.97301257 -1197.34461631 1024.43649863 -1194.39453125 1021.89453125 C-1189.06164678 1017.30393447 -1183.71814055 1012.74238602 -1178.25 1008.3125 C-1173.87492253 1004.76254679 -1169.69450808 1001.04436179 -1165.53125 997.25 C-1162.02200514 994.13067124 -1158.36837877 991.20250867 -1154.71875 988.25 C-1152.07852271 986.06498431 -1149.5327028 983.80828609 -1147 981.5 C-1142.70008209 977.58108748 -1138.24080453 973.90829131 -1133.71875 970.25 C-1131.07852271 968.06498431 -1128.5327028 965.80828609 -1126 963.5 C-1122.68010514 960.47717579 -1119.30235888 957.57487839 -1115.8125 954.75 C-1109.37288007 949.53481485 -1103.14544597 944.08668248 -1096.89648438 938.64648438 C-1093.92144811 936.06362591 -1090.9305594 933.49943086 -1087.9375 930.9375 C-1087.36410889 930.44660889 -1086.79071777 929.95571777 -1086.19995117 929.44995117 C-1085.04469482 928.46114797 -1083.88934024 927.47245951 -1082.73388672 926.48388672 C-1079.82105954 923.99104476 -1076.91065939 921.49537234 -1074 919 C-1072.83334482 917.9999866 -1071.66667816 916.99998659 -1070.5 916 C-1069.9225 915.505 -1069.345 915.01 -1068.75 914.5 C-1057.66666667 905 -1046.58333333 895.5 -1035.5 886 C-1034.9222583 885.5047583 -1034.3445166 885.0095166 -1033.74926758 884.49926758 C-1032.58518023 883.50154805 -1031.42095544 882.50398886 -1030.2565918 881.5065918 C-1027.29930113 878.97301257 -1024.34461631 876.43649863 -1021.39453125 873.89453125 C-1016.06164678 869.30393447 -1010.71814055 864.74238602 -1005.25 860.3125 C-1000.87492253 856.76254679 -996.69450808 853.04436179 -992.53125 849.25 C-989.02200514 846.13067124 -985.36837877 843.20250867 -981.71875 840.25 C-979.07852271 838.06498431 -976.5327028 835.80828609 -974 833.5 C-969.70008209 829.58108748 -965.24080453 825.90829131 -960.71875 822.25 C-958.07852271 820.06498431 -955.5327028 817.80828609 -953 815.5 C-949.68010514 812.47717579 -946.30235888 809.57487839 -942.8125 806.75 C-936.37288007 801.53481485 -930.14544597 796.08668248 -923.89648438 790.64648438 C-920.92144811 788.06362591 -917.9305594 785.49943086 -914.9375 782.9375 C-914.36410889 782.44660889 -913.79071777 781.95571777 -913.19995117 781.44995117 C-912.04469482 780.46114797 -910.88934024 779.47245951 -909.73388672 778.48388672 C-906.82105954 775.99104476 -903.91065939 773.49537234 -901 771 C-899.83334482 769.9999866 -898.66667816 768.99998659 -897.5 768 C-896.9225 767.505 -896.345 767.01 -895.75 766.5 C-884.66666667 757 -873.58333333 747.5 -862.5 738 C-861.9222583 737.5047583 -861.3445166 737.0095166 -860.74926758 736.49926758 C-859.58518023 735.50154805 -858.42095544 734.50398886 -857.2565918 733.5065918 C-854.29930113 730.97301257 -851.34461631 728.43649863 -848.39453125 725.89453125 C-843.06164678 721.30393447 -837.71814055 716.74238602 -832.25 712.3125 C-827.87492253 708.76254679 -823.69450808 705.04436179 -819.53125 701.25 C-816.02200514 698.13067124 -812.36837877 695.20250867 -808.71875 692.25 C-806.07852271 690.06498431 -803.5327028 687.80828609 -801 685.5 C-796.70008209 681.58108748 -792.24080453 677.90829131 -787.71875 674.25 C-785.07852271 672.06498431 -782.5327028 669.80828609 -780 667.5 C-775.70008209 663.58108748 -771.24080453 659.90829131 -766.71875 656.25 C-764.07852271 654.06498431 -761.5327028 651.80828609 -759 649.5 C-755.68010514 646.47717579 -752.30235888 643.57487839 -748.8125 640.75 C-742.37288007 635.53481485 -736.14544597 630.08668248 -729.89648438 624.64648438 C-726.92144811 622.06362591 -723.9305594 619.49943086 -720.9375 616.9375 C-720.36410889 616.44660889 -719.79071777 615.95571777 -719.19995117 615.44995117 C-718.04469482 614.46114797 -716.88934024 613.47245951 -715.73388672 612.48388672 C-712.82105954 609.99104476 -709.91065939 607.49537234 -707 605 C-705.83334482 603.9999866 -704.66667816 602.99998659 -703.5 602 C-702.9225 601.505 -702.345 601.01 -701.75 600.5 C-695.33333333 595 -688.91666667 589.5 -682.5 584 C-681.9222583 583.5047583 -681.3445166 583.0095166 -680.74926758 582.49926758 C-679.58518023 581.50154805 -678.42095544 580.50398886 -677.2565918 579.5065918 C-674.29930113 576.97301257 -671.34461631 574.43649863 -668.39453125 571.89453125 C-663.06164678 567.30393447 -657.71814055 562.74238602 -652.25 558.3125 C-647.87492253 554.76254679 -643.69450808 551.04436179 -639.53125 547.25 C-636.02200514 544.13067124 -632.36837877 541.20250867 -628.71875 538.25 C-626.07852271 536.06498431 -623.5327028 533.80828609 -621 531.5 C-616.70008209 527.58108748 -612.24080453 523.90829131 -607.71875 520.25 C-605.07852271 518.06498431 -602.5327028 515.80828609 -600 513.5 C-596.68010514 510.47717579 -593.30235888 507.57487839 -589.8125 504.75 C-583.37288007 499.53481485 -577.14544597 494.08668248 -570.89648438 488.64648438 C-567.92144811 486.06362591 -564.9305594 483.49943086 -561.9375 480.9375 C-561.36410889 480.44660889 -560.79071777 479.95571777 -560.19995117 479.44995117 C-559.04469482 478.46114797 -557.88934024 477.47245951 -556.73388672 476.48388672 C-553.82105954 473.99104476 -550.91065939 471.49537234 -548 469 C-546.83334482 467.9999866 -545.66667816 466.99998659 -544.5 466 C-543.9225 465.505 -543.345 465.01 -542.75 464.5 C-531.66666667 455 -520.58333333 445.5 -509.5 436 C-508.9222583 435.5047583 -508.3445166 435.0095166 -507.74926758 434.49926758 C-506.58518023 433.50154805 -505.42095544 432.50398886 -504.2565918 431.5065918 C-501.29930113 428.97301257 -498.34461631 426.43649863 -495.39453125 423.89453125 C-490.06164678 419.30393447 -484.71814055 414.74238602 -479.25 410.3125 C-474.87492253 406.76254679 -470.69450808 403.04436179 -466.53125 399.25 C-463.02200514 396.13067124 -459.36837877 393.20250867 -455.71875 390.25 C-453.07852271 388.06498431 -450.5327028 385.80828609 -448 383.5 C-443.70008209 379.58108748 -439.24080453 375.90829131 -434.71875 372.25 C-432.07852271 370.06498431 -429.5327028 367.80828609 -427 365.5 C-422.70008209 361.58108748 -418.24080453 357.90829131 -413.71875 354.25 C-411.07852271 352.06498431 -408.5327028 349.80828609 -406 347.5 C-402.68010514 344.47717579 -399.30235888 341.57487839 -395.8125 338.75 C-389.37288007 333.53481485 -383.14544597 328.08668248 -376.89648438 322.64648438 C-373.92144811 320.06362591 -370.9305594 317.49943086 -367.9375 314.9375 C-367.36410889 314.44660889 -366.79071777 313.95571777 -366.19995117 313.44995117 C-365.04469482 312.46114797 -363.88934024 311.47245951 -362.73388672 310.48388672 C-359.82105954 307.99104476 -356.91065939 305.49537234 -354 303 C-352.83334482 301.9999866 -351.66667816 300.99998659 -350.5 300 C-349.9225 299.505 -349.345 299.01 -348.75 298.5 C-347 297 -345.25 295.5 -343.5 294 C-342.92241943 293.50491943 -342.34483887 293.00983887 -341.74975586 292.49975586 C-340.58394896 291.50051604 -339.41809614 290.50132977 -338.25219727 289.50219727 C-335.32199602 286.99100539 -332.39261709 284.47886607 -329.46484375 281.96484375 C-323.29340193 276.6672344 -317.10598459 271.38984001 -310.89208984 266.14208984 C-305.15831236 261.29603358 -299.46176847 256.40686219 -293.76611328 251.51611328 C-290.84557725 249.00899015 -287.92267689 246.50462672 -285 244 C-283.83332184 243.00001341 -282.66665518 242.0000134 -281.5 241 C-264 226 -264 226 -246.5 211 C-245.9222583 210.5047583 -245.3445166 210.0095166 -244.74926758 209.49926758 C-243.58518023 208.50154805 -242.42095544 207.50398886 -241.2565918 206.5065918 C-238.29930113 203.97301257 -235.34461631 201.43649863 -232.39453125 198.89453125 C-227.06164678 194.30393447 -221.71814055 189.74238602 -216.25 185.3125 C-211.87492253 181.76254679 -207.69450808 178.04436179 -203.53125 174.25 C-200.02200514 171.13067124 -196.36837877 168.20250867 -192.71875 165.25 C-190.07852271 163.06498431 -187.5327028 160.80828609 -185 158.5 C-180.70008209 154.58108748 -176.24080453 150.90829131 -171.71875 147.25 C-169.07852271 145.06498431 -166.5327028 142.80828609 -164 140.5 C-159.70008209 136.58108748 -155.24080453 132.90829131 -150.71875 129.25 C-148.07852271 127.06498431 -145.5327028 124.80828609 -143 122.5 C-139.68010514 119.47717579 -136.30235888 116.57487839 -132.8125 113.75 C-126.37288007 108.53481485 -120.14544597 103.08668248 -113.89648438 97.64648438 C-110.92144811 95.06362591 -107.9305594 92.49943086 -104.9375 89.9375 C-104.36410889 89.44660889 -103.79071777 88.95571777 -103.19995117 88.44995117 C-102.04469482 87.46114797 -100.88934024 86.47245951 -99.73388672 85.48388672 C-96.82105954 82.99104476 -93.91065939 80.49537234 -91 78 C-89.83334482 76.9999866 -88.66667816 75.99998659 -87.5 75 C-86.9225 74.505 -86.345 74.01 -85.75 73.5 C-84 72 -82.25 70.5 -80.5 69 C-79.92241943 68.50491943 -79.34483887 68.00983887 -78.74975586 67.49975586 C-77.58394896 66.50051604 -76.41809614 65.50132977 -75.25219727 64.50219727 C-72.32199602 61.99100539 -69.39261709 59.47886607 -66.46484375 56.96484375 C-60.29340193 51.6672344 -54.10598459 46.38984001 -47.89208984 41.14208984 C-42.15831236 36.29603358 -36.46176847 31.40686219 -30.76611328 26.51611328 C-27.84557721 24.00899011 -24.92264852 21.50465988 -22 19 C-21.43200684 18.51305664 -20.86401367 18.02611328 -20.27880859 17.52441406 C-17.20131194 14.88606288 -14.12278256 12.24892734 -11.04296875 9.61328125 C-10.39779297 9.06091797 -9.75261719 8.50855469 -9.08789062 7.93945312 C-7.84338584 6.87401377 -6.5986046 5.80889723 -5.35351562 4.74414062 C-2.61466747 2.44020526 -2.61466747 2.44020526 0 0 Z " fill="#38B6FF" transform="translate(1550,374)"/>
<path d="M0 0 C37.29 0 74.58 0 113 0 C113 37.29 113 74.58 113 113 C75.71 113 38.42 113 0 113 C0 75.71 0 38.42 0 0 Z " fill="#38B6FF" transform="translate(1082,1344)"/>
<path d="M0 0 C37.29 0 74.58 0 113 0 C113 37.29 113 74.58 113 113 C75.71 113 38.42 113 0 113 C0 75.71 0 38.42 0 0 Z " fill="#38B6FF" transform="translate(917,1344)"/>
<path d="M0 0 C37.29 0 74.58 0 113 0 C113 36.96 113 73.92 113 112 C75.71 112 38.42 112 0 112 C0 75.04 0 38.08 0 0 Z " fill="#38B6FF" transform="translate(1082,1506)"/>
<path d="M0 0 C37.29 0 74.58 0 113 0 C113 36.96 113 73.92 113 112 C75.71 112 38.42 112 0 112 C0 75.04 0 38.08 0 0 Z " fill="#38B6FF" transform="translate(917,1506)"/>
<path d="M0 0 C0.33 0 0.66 0 1 0 C0.67 4.95 0.34 9.9 0 15 C-3 11 -3 11 -2.8125 8.625 C-1.91753779 5.73358363 -0.99697065 2.85798252 0 0 Z " fill="#C0E8FF" transform="translate(1828,1036)"/>
</svg>
