<svg width="238" height="232" viewBox="0 0 238 232" fill="none" xmlns="http://www.w3.org/2000/svg">
<path fill-rule="evenodd" clip-rule="evenodd" d="M4.15912 56.4528L0.628989 171.005C0.571196 172.881 1.27752 174.7 2.58687 176.048C3.89623 177.396 5.69698 178.157 7.57844 178.158H176.684C180.525 178.154 183.638 175.049 183.642 171.218V56.666C183.642 52.8332 180.527 49.7261 176.684 49.7261H11.1086C7.34945 49.7244 4.27044 52.7048 4.15912 56.4528V56.4528Z" stroke="#000001" stroke-width="0.5" stroke-linecap="round" stroke-linejoin="round"/>
<path fill-rule="evenodd" clip-rule="evenodd" d="M176.701 49.6787H11.3478C7.5956 49.677 4.5214 52.5882 4.40718 56.2512L3.96899 70.2064L183.642 66.7061V56.4652C183.644 54.666 182.913 52.9398 181.612 51.6669C180.31 50.394 178.543 49.6787 176.701 49.6787Z" stroke="#000001" stroke-width="0.5" stroke-linecap="round" stroke-linejoin="round"/>
<ellipse cx="15.8578" cy="59.9426" rx="2.42993" ry="2.42385" fill="#102030"/>
<ellipse cx="29.3689" cy="59.9426" rx="2.42993" ry="2.42385" fill="#102030"/>
<ellipse cx="42.8796" cy="59.9426" rx="2.42994" ry="2.42385" fill="#102030"/>
<path d="M3.94632 231.462H236.946" stroke="#000001" stroke-width="0.5" stroke-linecap="round" stroke-linejoin="round"/>
<path d="M137.071 18.6648L128.504 14.824" stroke="#000001" stroke-width="0.5" stroke-linecap="round" stroke-linejoin="round"/>
<path d="M142.003 13.0625L135.012 1.69653" stroke="#000001" stroke-width="0.5" stroke-linecap="round" stroke-linejoin="round"/>
<path d="M148.139 10.6602V0.899144" stroke="#000001" stroke-width="0.5" stroke-linecap="round" stroke-linejoin="round"/>
<path fill-rule="evenodd" clip-rule="evenodd" d="M100.588 13.1427L100.751 13.1856L100.918 13.2346C111.299 15.9273 109.9 26.4052 109.124 29.8899L109.069 30.1294L109.018 30.3433L108.97 30.5303L108.909 30.7579L108.864 30.9181L108.832 31.0239C105.47 43.5411 98.8312 43.9795 96.6711 43.7668L96.5229 43.7505L96.3909 43.7328L96.2759 43.7148L96.1364 43.6893L96.0386 43.6683L95.9742 43.6524C89.3428 42.2689 87.422 37.5953 86.8796 34.6156L86.8423 34.4007C86.8365 34.3654 86.8309 34.3304 86.8254 34.2956L86.795 34.0906L86.7688 33.8926L86.7464 33.7023C86.743 33.6712 86.7397 33.6405 86.7366 33.6101L86.7196 33.4319L86.7057 33.2624L86.6948 33.1019L86.6864 32.951L86.7895 33.0609C82.8272 28.8757 82.7954 26.3577 83.1808 25.1747L83.2158 25.0738L83.2524 24.9798L83.2901 24.8925L83.3284 24.8121C83.3348 24.7993 83.3412 24.7867 83.3476 24.7744L83.3857 24.704L83.423 24.6403L83.459 24.5832L83.4932 24.5326L83.5397 24.469L83.5903 24.4065L83.6359 24.357C84.5296 23.404 85.2867 23.5465 85.8354 23.959C88.4525 12.0186 96.8996 12.443 99.8719 12.9879L100.062 13.0242C100.092 13.0303 100.122 13.0363 100.15 13.0423L100.315 13.0777L100.461 13.1114L100.588 13.1427Z" fill="#FFDEB7"/>
<path d="M84.7276 25.5306C84.7276 25.5306 85.9252 25.1361 86.6311 29.0077" stroke="#000001" stroke-width="0.5" stroke-linecap="round" stroke-linejoin="round"/>
<path d="M94.4545 25.1415L98.1315 26.0061" stroke="#000001" stroke-width="0.5" stroke-linecap="round" stroke-linejoin="round"/>
<path d="M104.129 27.7243L107.19 28.5423" stroke="#000001" stroke-width="0.5" stroke-linecap="round" stroke-linejoin="round"/>
<ellipse rx="0.727312" ry="1.31556" transform="matrix(0.966088 0.258214 -0.259426 0.965763 95.3424 28.7662)" fill="#102030"/>
<ellipse rx="0.727313" ry="1.31556" transform="matrix(0.966088 0.258214 -0.259426 0.965763 104.802 31.3311)" fill="#102030"/>
<path fill-rule="evenodd" clip-rule="evenodd" d="M102.121 11.2785C109.416 13.1034 110.995 16.3587 111.323 17.9281L111.347 18.0515L111.366 18.1673L111.381 18.2749L111.391 18.374L111.399 18.4642L111.403 18.5452L111.406 18.6486L111.405 18.7292L111.399 18.8227C111.384 19.1928 111.339 19.5374 111.267 19.8584L111.234 19.994L111.291 20.0637L111.345 20.134L111.441 20.2633L111.526 20.3858L111.589 20.479L111.655 20.5813L111.724 20.6922C111.736 20.7114 111.748 20.731 111.759 20.7509L111.832 20.8744L111.905 21.006L111.979 21.1454L112.053 21.2922C112.91 23.0482 113.61 26.2808 109.363 29.0599L108.319 23.3202C107.953 23.4927 107.579 23.6321 107.214 23.7446L107.033 23.7986C107.002 23.8073 106.972 23.8158 106.942 23.824L106.764 23.8717L106.587 23.9154L106.414 23.9552L106.244 23.9913L106.077 24.0239L105.915 24.0532L105.758 24.0794L105.605 24.1026L105.458 24.123L105.249 24.1488L105.118 24.163L104.994 24.1751L104.768 24.1934L104.62 24.2028L104.387 24.213L104.208 24.2158L105.775 21.9816C102.417 24.4133 99.5592 24.163 97.854 23.6078L97.7086 23.5588L97.5692 23.5086L97.4357 23.4575L97.3083 23.406L97.1872 23.3543L97.0723 23.3029L96.9638 23.2519L96.8617 23.2019L96.7663 23.1531L96.6775 23.1059L96.557 23.0388L96.452 22.9773L96.3124 22.8902L96.2165 22.8258L96.1659 22.7894L99.3596 20.067C97.3348 21.7878 94.5477 22.2337 91.8726 22.1687L91.5759 22.1594C91.4772 22.1557 91.3786 22.1512 91.2803 22.1462L90.9863 22.1292C90.9374 22.1261 90.8886 22.1228 90.8399 22.1194L90.5485 22.0972C90.4517 22.0893 90.3552 22.0808 90.2592 22.0719L89.9723 22.0436L89.8265 22.2695L89.6777 22.5047L89.5261 22.7492L89.3716 23.0035L89.2142 23.2675L89.054 23.5415L88.891 23.8257C88.8636 23.8739 88.8361 23.9225 88.8085 23.9716L88.6414 24.2713C88.6133 24.3222 88.5852 24.3735 88.5569 24.4252L88.3858 24.7409L88.212 25.0675C88.1828 25.1228 88.1535 25.1786 88.1242 25.2349L87.9465 25.5781L87.7663 25.9326C87.736 25.9927 87.7057 26.0532 87.6752 26.1142L87.4912 26.486L87.3048 26.8696L87.2891 26.7698L87.2643 26.6336L87.2369 26.5L87.2142 26.3979L87.1876 26.2866L87.157 26.1672L87.1223 26.0406C87.1161 26.0189 87.1098 25.997 87.1032 25.9749L87.0618 25.8396L87.0157 25.6997C86.7895 25.0378 86.405 24.2613 85.7772 23.8445L85.709 23.8012L85.7165 23.5668C85.7494 22.7098 85.8414 21.8574 85.9911 21.0156C85.9271 20.9488 85.8679 20.8757 85.8138 20.7963C85.6806 20.5951 85.5839 20.3721 85.5282 20.1375C85.1752 18.7335 85.6917 17.1722 86.3465 15.8318L86.4509 15.6221L86.557 15.4163C86.5747 15.3824 86.5926 15.3486 86.6104 15.3151L86.7178 15.1159L86.8252 14.9217C86.8431 14.8897 86.8609 14.858 86.8787 14.8264C87.656 13.4377 88.8094 12.2951 90.207 11.5295C92.9155 10.0566 95.9101 10.0739 98.8377 10.5671L99.1403 10.6198C99.1906 10.6289 99.241 10.638 99.2914 10.6473L99.5931 10.7047L99.8941 10.7647C99.9442 10.775 99.9943 10.7853 100.044 10.7957L100.344 10.8595C100.394 10.8703 100.444 10.8812 100.494 10.8922L100.792 10.9591L101.09 11.0278L101.386 11.098L101.828 11.2056L102.121 11.2785Z" fill="#102030"/>
<g style="mix-blend-mode:screen" opacity="0.2">
<path fill-rule="evenodd" clip-rule="evenodd" d="M87.4913 26.486L87.3048 26.8695L87.2898 26.7731L87.2659 26.6414L87.2396 26.512L87.2177 26.413L87.178 26.2479L87.1467 26.1282L87.1113 26.002L87.0715 25.8701L87.0274 25.7336C87.0196 25.7106 87.0117 25.6873 87.0035 25.664L86.9524 25.5225C86.72 24.9038 86.3499 24.2245 85.7772 23.8444L85.709 23.8011L85.7166 23.5667C85.7495 22.7098 85.8414 21.8575 85.9911 21.0158C86.4585 21.5094 87.1699 21.6913 87.9142 21.7979L88.1179 21.8253C88.1519 21.8296 88.186 21.8338 88.22 21.8379L88.5263 21.8731L88.8298 21.9071L89.029 21.9308L89.1274 21.9434C89.4043 21.9802 89.6865 22.0139 89.9726 22.0436L89.8268 22.2695L89.678 22.5046L89.5263 22.7493L89.3717 23.0035L89.2143 23.2675L89.054 23.5415L88.8911 23.8257C88.8637 23.8739 88.8362 23.9226 88.8085 23.9716L88.6414 24.2714C88.6134 24.3222 88.5852 24.3735 88.5569 24.4252L88.3858 24.7409L88.212 25.0675C88.1829 25.1228 88.1536 25.1786 88.1242 25.2349L87.9465 25.5781C87.9167 25.6362 87.8868 25.6948 87.8568 25.7539L87.6753 26.1141L87.4913 26.486ZM111.234 19.9946L111.291 20.0638L111.345 20.1341L111.441 20.2634L111.526 20.3858L111.589 20.4791L111.655 20.5813L111.724 20.6923C111.736 20.7115 111.748 20.7311 111.759 20.751L111.832 20.8745L111.905 21.0061L111.979 21.1454L112.053 21.2923C112.91 23.0483 113.61 26.2808 109.363 29.0599L108.319 23.3202C109.605 22.714 110.802 21.6979 111.234 19.9946Z" fill="white"/>
</g>
<path fill-rule="evenodd" clip-rule="evenodd" d="M88.0126 37.9121C88.043 37.9701 88.0741 38.028 88.1058 38.086L88.203 38.2597C88.3189 38.4623 88.4433 38.6643 88.5769 38.8649L88.6936 39.0365L88.8149 39.2072C90.154 41.0516 92.3122 42.7251 95.7852 43.4863L95.9464 43.5208L96.0435 43.5441L96.1301 43.5619L96.2023 43.5753L96.3313 43.5965L96.4843 43.6176L96.5991 43.6307L96.7237 43.6427L96.8579 43.6529L97.0012 43.6609C97.0259 43.662 97.0509 43.663 97.0762 43.6639L97.2328 43.6678C97.3936 43.67 97.567 43.6672 97.7516 43.6573L96.1014 49.801C95.3225 52.7006 92.3346 54.4213 89.4278 53.6443C86.521 52.8674 84.7959 49.887 85.5748 46.9875L88.0126 37.9121Z" fill="#FFDEB7"/>
<path d="M88.6041 38.8691L88.7208 39.0407L88.8421 39.2114C90.0747 40.9092 92.0014 42.4621 95.0087 43.2921" stroke="#000001" stroke-width="0.5" stroke-linecap="round" stroke-linejoin="round"/>
<path d="M99.9201 28.9741C99.9201 28.9741 97.346 35.0076 100.352 35.6928C100.352 35.6928 101.848 35.7944 101.137 33.8206C100.892 32.3893 100.932 30.9239 101.255 29.508C101.255 29.508 101.583 28.4957 100.844 28.3574C100.833 28.3598 100.269 28.032 99.9201 28.9741Z" fill="#F49262"/>
<path d="M97.8741 38.9004C97.8741 38.9004 99.9538 36.1982 102.851 38.1091" stroke="#000001" stroke-width="0.5" stroke-linecap="round" stroke-linejoin="round"/>
<path d="M87.2317 25.4435L91.5672 26.0199" stroke="#000001" stroke-width="0.5" stroke-linecap="round" stroke-linejoin="round"/>
<path d="M99.3068 28.3724C99.3068 28.3724 101.226 27.338 102.303 29.1478" stroke="#000001" stroke-width="0.5" stroke-linecap="round" stroke-linejoin="round"/>
<ellipse rx="4.16425" ry="4.17309" transform="matrix(0.365234 -0.931065 0.931428 0.363546 95.1248 28.1028)" stroke="#000001" stroke-width="0.5" stroke-linecap="round" stroke-linejoin="round"/>
<ellipse rx="3.88689" ry="3.56029" transform="matrix(0.26955 -0.963 0.963324 0.268291 105.478 30.9875)" stroke="#000001" stroke-width="0.5" stroke-linecap="round" stroke-linejoin="round"/>
<path fill-rule="evenodd" clip-rule="evenodd" d="M21.1162 196.671L17.0622 205.283C26.7559 217.186 38.433 214.928 38.433 214.928L42.3181 206.232L21.1162 196.671Z" fill="#FFDEB7"/>
<path fill-rule="evenodd" clip-rule="evenodd" d="M88.2417 207.797L88.1082 217.309C101.861 224.165 111.566 217.309 111.566 217.309L111.514 207.797H88.2417Z" fill="#FFDEB7"/>
<path fill-rule="evenodd" clip-rule="evenodd" d="M113.722 212.504L114.537 218.163C117.772 219.161 120.779 220.465 123.356 221.764L123.819 222.001L124.273 222.236C124.573 222.393 124.865 222.549 125.151 222.704L125.574 222.936C125.644 222.975 125.713 223.013 125.782 223.051L126.189 223.279C126.255 223.317 126.322 223.355 126.388 223.392L126.778 223.616L127.156 223.837L127.522 224.053L127.876 224.266L128.218 224.473C128.274 224.508 128.329 224.542 128.384 224.575L128.707 224.775L129.016 224.97L129.312 225.158L129.595 225.339L129.863 225.514L130.239 225.762L130.583 225.992L130.892 226.202L131.167 226.392L131.546 226.659L131.902 226.916L132.047 227.024L132.45 231.375L88.704 231.517L87.1566 214.287L113.722 212.504ZM18.4031 201.78L42.8879 214.941L58.4692 224.725V228.956C24.5148 229.815 12.912 222.727 10.4691 220.869L10.315 220.75C10.2917 220.731 10.2695 220.713 10.2485 220.696L10.1362 220.603L10.0505 220.529L9.94357 220.431L11.4284 217.026L18.4031 201.78Z" fill="url(#paint0_linear_1914_6896)"/>
<path fill-rule="evenodd" clip-rule="evenodd" d="M54.6979 90.2014L101.718 95.5195L101.778 95.6465L101.85 95.8073L101.949 96.035C101.967 96.0786 101.987 96.1251 102.008 96.1744L102.145 96.5051C104.357 101.93 114.437 130.625 114.888 203.973C115.396 204.077 115.789 204.597 115.815 205.213L115.816 205.277L115.732 211.414C115.724 212.024 115.338 212.52 114.819 212.583L114.767 212.588L85.2883 214.441C84.6428 214.481 84.0958 213.847 84.1143 213.102L84.1168 213.044L84.5963 205.748C84.5875 205.194 84.9967 204.725 85.5413 204.653L85.5962 204.647L85.7175 204.644L85.7008 203.753L85.681 202.806L85.6578 201.803L85.6309 200.747C85.6261 200.567 85.6212 200.384 85.616 200.199L85.5832 199.064L85.5461 197.878L85.5043 196.643L85.4578 195.359L85.4062 194.027C85.379 193.349 85.3499 192.655 85.3186 191.943L85.2531 190.498C84.3863 171.917 82.0759 142.911 75.9407 114.187L75.9009 114.543L75.8612 114.879L75.7739 115.584L75.6961 116.184C74.4501 125.617 67.9914 166.903 46.232 206.075L45.8953 206.675L46.3674 206.944C46.8942 207.243 47.0346 208.001 46.6898 208.611L46.6571 208.666L43.4068 213.878C43.1462 214.373 42.5589 214.596 42.0374 214.405L41.9837 214.384L15.7831 200.789C15.21 200.49 15.0673 199.67 15.4661 199.042L15.5016 198.989L19.6952 192.988C19.9672 192.527 20.5309 192.336 21.0232 192.524L21.9252 190.975L22.2552 190.406C27.4262 181.452 37.7284 161.942 52.2949 98.5147C52.422 97.9606 52.5351 97.4034 52.6459 96.8466L52.8116 96.0119L52.8958 95.5956C52.91 95.5262 52.9243 95.457 52.9387 95.3877L53.0267 94.973C53.3712 93.3859 53.8023 91.8319 54.5928 90.389L54.6979 90.2014Z" fill="#102030"/>
<g style="mix-blend-mode:screen" opacity="0.2">
<path fill-rule="evenodd" clip-rule="evenodd" d="M84.5964 205.748L84.1169 213.044C84.0679 213.814 84.6264 214.482 85.2884 214.441L114.767 212.588C115.312 212.553 115.724 212.044 115.732 211.414L115.816 205.277C115.816 204.549 115.301 203.938 114.677 203.954L85.5963 204.647C85.0245 204.694 84.5873 205.175 84.5964 205.748Z" fill="white"/>
</g>
<g style="mix-blend-mode:screen" opacity="0.2">
<path fill-rule="evenodd" clip-rule="evenodd" d="M19.6953 192.988L15.5017 198.989C15.0595 199.623 15.1937 200.481 15.7832 200.789L41.9838 214.384C42.5181 214.611 43.1373 214.391 43.4069 213.878L46.6572 208.666C47.0429 208.048 46.9103 207.252 46.3675 206.944L21.1048 192.559C20.5946 192.315 19.9824 192.501 19.6953 192.988Z" fill="white"/>
</g>
<path fill-rule="evenodd" clip-rule="evenodd" d="M83.9848 44.9675L85.9663 45.4937L85.9522 45.5467L91.1728 52.897L96.1835 49.4537L96.2129 49.3486L96.4975 48.2899L96.6455 48.3293L97.4173 49.7566L98.2175 49.9528L98.384 49.972L98.5092 49.9907L98.6105 50.0079L98.7257 50.0293L98.8541 50.0553L98.9954 50.0865L99.1489 50.1232L99.3143 50.1658L99.4013 50.1894L99.491 50.2147L99.6786 50.2705L99.7763 50.3011L99.8766 50.3335L100.084 50.4041L100.23 50.4562L100.379 50.5121L100.532 50.5719L100.69 50.6357L100.85 50.7037L101.015 50.776C101.042 50.7884 101.07 50.801 101.098 50.8138L101.267 50.8929L101.44 50.9765C101.498 51.0052 101.556 51.0347 101.615 51.0649L101.794 51.1583C101.854 51.1902 101.914 51.223 101.975 51.2566L102.158 51.3601L102.344 51.4689C102.407 51.506 102.47 51.5441 102.533 51.5831L102.723 51.7028L102.915 51.8282C105.074 53.2609 107.571 55.7793 109.479 60.1983L109.565 60.3995L109.69 60.7489L109.91 61.3473L110.189 62.0904L110.437 62.7382L110.664 63.3225L110.916 63.9625L111.136 64.5127L111.371 65.0956L111.622 65.7095C111.665 65.8143 111.709 65.9204 111.753 66.0277L112.027 66.6857L112.316 67.3713C114.787 73.1931 118.815 81.7428 123.963 89.3739C127.879 95.1794 132.443 100.453 137.462 103.59L137.859 103.833L129.541 119.94L128.993 119.543L128.427 119.127L127.887 118.728L127.257 118.257L126.79 117.906L126.288 117.526L125.753 117.118L125.187 116.685L124.592 116.226L123.971 115.743L123.326 115.238L122.658 114.711L121.97 114.164L121.263 113.598C114 107.747 104.264 99.1093 102.093 93.2821L101.991 92.9949L101.62 95.5767L95.4646 94.9225C97.1891 96.0631 99.101 97.1521 101.22 98.172L108.707 102.433L98.4545 118.294L86.7011 111.972L86.6098 111.934L86.4106 111.847L86.1919 111.747L86.0146 111.664L85.813 111.567L85.588 111.456C85.5091 111.417 85.4265 111.375 85.3403 111.331L85.0707 111.191C84.9773 111.142 84.8804 111.091 84.7801 111.037L84.4693 110.868C80.514 108.685 72.1236 103.029 66.0911 91.8024L54.9201 90.6143L59.7234 63.2747L59.7375 63.1793L59.7685 62.9889L59.819 62.7045L59.8405 62.59L59.8911 62.3331L59.952 62.0407L59.9809 61.9076L60.0446 61.6242L60.1167 61.319C61.3249 56.3209 65.7769 43.5971 79.5457 45.4166L79.988 45.4796L82.2089 46.0246C82.6962 45.6707 83.2361 45.3304 83.8113 45.0498L83.9848 44.9675Z" fill="white"/>
<path fill-rule="evenodd" clip-rule="evenodd" d="M92.8642 60.2311L97.0817 88.1414L91.4111 91.8699C86.7008 87.8237 83.8784 83.3751 82.2238 79.1706L88.1481 60.2311H92.8642ZM87.3934 53.4968L87.4441 53.5012L91.3249 54.6779L94.667 54.1352L94.6678 54.1355L92.8615 60.2312H88.1481C87.709 58.0113 87.4566 55.7586 87.3934 53.4968Z" fill="#01959F"/>
<path opacity="0.1" fill-rule="evenodd" clip-rule="evenodd" d="M87.3934 53.4968L87.4441 53.5012L91.3248 54.6779L94.667 54.1352L94.6678 54.1355L92.8615 60.2312H88.1481C87.709 58.0113 87.4566 55.7586 87.3934 53.4968Z" fill="#000001"/>
<path fill-rule="evenodd" clip-rule="evenodd" d="M126.374 85.025L142.598 94.1044L109.31 158.858L109.26 158.936L109.195 159.032L109.105 159.16L109.031 159.263L108.945 159.377L108.848 159.503L108.74 159.639C108.721 159.663 108.701 159.687 108.681 159.711L108.556 159.861C108.49 159.938 108.42 160.018 108.346 160.1L108.192 160.268C106.304 162.291 102.031 165.491 95.4297 162.82L95.1471 162.702L95.0439 162.645L94.9783 162.606L94.8987 162.558L94.8062 162.5L94.7016 162.431L94.5859 162.352C94.5658 162.338 94.5452 162.323 94.5243 162.309L94.3939 162.214C94.3264 162.164 94.2558 162.11 94.1824 162.052L94.0323 161.931C92.1153 160.348 88.7493 156.219 92.4941 148.514L126.374 85.025Z" fill="url(#paint1_linear_1914_6896)"/>
<path fill-rule="evenodd" clip-rule="evenodd" d="M142.598 94.1042L126.374 85.0248L118.814 99.1929L118.943 99.3115L119.128 99.4737L119.278 99.6013L119.523 99.8049L119.741 99.9812L119.903 100.109L120.079 100.246L120.267 100.39L120.469 100.542L120.684 100.701L120.912 100.867L121.153 101.04C121.195 101.069 121.237 101.099 121.279 101.129L121.541 101.311L121.816 101.499C121.863 101.531 121.91 101.563 121.958 101.595L122.254 101.791C122.354 101.858 122.457 101.925 122.563 101.993L122.885 102.199C123.214 102.408 123.564 102.623 123.934 102.844L124.31 103.066C126.996 104.635 130.69 106.446 135.442 108.025L142.598 94.1042Z" fill="#FBC037"/>
<path fill-rule="evenodd" clip-rule="evenodd" d="M140.161 94.0769C130.085 89.3835 129.467 69.4474 138.782 49.5485C148.097 29.6496 163.817 17.3231 173.894 22.0166C183.971 26.7101 184.588 46.6461 175.273 66.5451C165.958 86.444 150.238 98.7704 140.161 94.0769Z" fill="#4DB5BC"/>
<path d="M142.54 89.757C135.385 86.4137 136.083 69.8666 144.098 52.798C152.114 35.7294 164.412 24.6028 171.567 27.9461C178.722 31.2893 178.024 47.8364 170.009 64.905C161.993 81.9736 149.695 93.1002 142.54 89.757Z" fill="white"/>
<path fill-rule="evenodd" clip-rule="evenodd" d="M130.358 45.5745C139.699 25.6882 155.404 13.4102 165.475 18.1577L172.51 21.5536C162.445 18.542 147.751 30.5821 138.851 49.5337C129.513 69.4198 130.09 89.3863 140.144 94.1293L131.653 90.1754C121.599 85.427 121.019 65.4607 130.358 45.5745Z" fill="#01959F"/>
<path opacity="0.1" fill-rule="evenodd" clip-rule="evenodd" d="M164.768 33.6843L164.865 33.7714L164.918 33.8245L164.986 33.8997L165.032 33.9552L165.064 33.9964L165.097 34.0409L165.13 34.0888L165.164 34.1398L165.198 34.1941L165.247 34.2816L165.279 34.3437C165.284 34.3544 165.29 34.3651 165.295 34.376L165.325 34.4428L165.353 34.5126L165.38 34.5854L165.404 34.6611L165.425 34.7397L165.444 34.8212C165.586 35.5121 165.393 36.4972 164.048 37.6737C162.425 39.3837 160.908 41.1912 159.507 43.0862L159.228 43.4675L159.191 43.5316L159.144 43.6054L159.113 43.6503L159.077 43.6996L159.036 43.7528L158.99 43.8092C158.982 43.8188 158.973 43.8285 158.965 43.8384L158.911 43.8983C158.901 43.9084 158.892 43.9186 158.882 43.9289L158.82 43.9909C158.357 44.4381 157.483 44.9301 156.102 44.3918L156.06 44.3597L155.986 44.2977L155.93 44.245L155.888 44.2035L155.844 44.1568L155.797 44.1051L155.75 44.0483C155.741 44.0384 155.733 44.0283 155.725 44.018L155.677 43.9537C155.668 43.9425 155.66 43.9312 155.652 43.9196L155.604 43.8477L155.556 43.7708C155.548 43.7576 155.541 43.7442 155.533 43.7305L155.488 43.6462C155.233 43.1398 155.101 42.3811 155.62 41.3871L155.734 41.1758L155.838 40.9892L155.988 40.7288L156.148 40.461L156.297 40.2169L156.422 40.0178L156.604 39.7329L156.702 39.5828L156.858 39.3489L157.024 39.1054L157.2 38.8532L157.323 38.6807L157.45 38.5051L157.582 38.3267L157.717 38.1458L157.857 37.9625L158.001 37.7773C158.025 37.7463 158.05 37.7152 158.074 37.6841L158.224 37.4965L158.378 37.3077C158.404 37.2761 158.431 37.2445 158.457 37.2129L158.617 37.0227L158.781 36.8321L158.949 36.6412C158.977 36.6094 159.005 36.5776 159.034 36.5458L159.207 36.3551C159.237 36.3234 159.266 36.2916 159.295 36.26L159.475 36.0701L159.657 35.8813C159.688 35.8499 159.719 35.8186 159.75 35.7873L159.938 35.6004L160.13 35.4151C160.227 35.323 160.325 35.2316 160.424 35.141L160.624 34.9612C160.928 34.6934 161.242 34.4347 161.568 34.1894L161.572 34.1868L161.71 34.0791L161.813 34.0023L161.907 33.9362L162.012 33.865L162.089 33.8155L162.171 33.7651L162.258 33.7144C162.272 33.706 162.287 33.6975 162.302 33.6891L162.395 33.6389C162.411 33.6306 162.427 33.6223 162.443 33.6141L162.541 33.5657C162.574 33.5499 162.608 33.5343 162.642 33.5192L162.747 33.475L162.854 33.4339C163.452 33.217 164.163 33.1613 164.768 33.6843Z" fill="#000001"/>
<path fill-rule="evenodd" clip-rule="evenodd" d="M108.707 102.433C108.707 102.433 116.657 106.801 118.847 115.994C119.187 116.959 118.779 118.027 117.883 118.522C117.883 118.522 116.657 119.212 115.793 117.707C115.793 117.707 117.235 119.949 115.679 121.386C115.679 121.386 114.298 122.419 112.742 120.639C112.742 120.639 114.815 123.628 112.682 124.949C112.682 124.949 111.415 125.58 110.437 124.028C110.437 124.028 111.415 126.202 109.977 126.846C109.977 126.846 108.448 127.982 107.138 125.465C107.138 125.465 105.078 121.731 101.961 120.237C101.961 120.237 100.798 119.546 98.4493 118.283L103.498 110.543L108.707 102.433Z" fill="#FFDEB7"/>
<path fill-rule="evenodd" clip-rule="evenodd" d="M130.767 118.09C130.767 118.09 139.485 122.212 145.103 112.97C145.103 112.97 149.934 104.091 143.112 97.7127C143.112 97.7127 139.57 94.0928 137.584 95.9028C137.584 95.9028 136.404 96.9083 138.129 98.6204C138.129 98.6204 136.573 97.4138 135.363 98.6204C135.363 98.6204 134.039 99.7075 135.478 101.322C135.478 101.322 134.508 100.46 133.208 101.379C133.208 101.379 131.742 102.414 133.208 104.482C133.208 104.482 131.993 103.333 130.552 104.137C130.552 104.137 129.026 104.972 130.35 106.782C130.35 106.782 132.018 108.866 133.641 112.513L130.764 118.079L130.767 118.09Z" fill="#FFDEB7"/>
<path d="M102.093 93.2823L101.991 92.9951L101.62 95.5769L95.4648 94.9228C97.1892 96.0633 99.1011 97.1523 101.22 98.1723L108.707 102.434L98.4546 118.294L86.7013 111.972L86.6099 111.934L86.4107 111.847L86.192 111.748L86.0147 111.664L85.8131 111.567L85.5881 111.456C85.5093 111.417 85.4267 111.375 85.3404 111.331L85.0709 111.192C84.9774 111.143 84.8805 111.091 84.7803 111.037L84.4694 110.868C80.5142 108.686 72.1237 103.03 66.0912 91.8026L54.9202 90.6145L59.7235 63.275L59.7376 63.1795L59.7686 62.9891L59.8191 62.7047L59.8407 62.5902L59.8912 62.3334L59.9521 62.041L59.981 61.9078L60.0447 61.6244L60.1168 61.3192C61.325 56.3212 65.777 43.5973 79.5458 45.4168L79.9881 45.4798L82.2091 46.0248C82.6963 45.671 83.2363 45.3306 83.8114 45.0501L83.9849 44.9678L85.9665 45.4939L85.9523 45.5469L91.1729 52.8973L96.1836 49.454L96.213 49.3489L96.4977 48.2901L96.6456 48.3295L97.4174 49.7568L98.2176 49.9531L98.3842 49.9722L98.5093 49.991L98.6107 50.0081L98.7258 50.0295L98.8543 50.0556L98.9955 50.0867L99.149 50.1234L99.3144 50.166L99.4014 50.1897L99.4912 50.215L99.6787 50.2708L99.7765 50.3013L99.8767 50.3337L100.085 50.4044L100.23 50.4565L100.379 50.5123L100.533 50.5721L100.69 50.6359L100.85 50.7039L101.015 50.7763C101.042 50.7887 101.07 50.8013 101.098 50.8141L101.268 50.8931L101.44 50.9768C101.498 51.0054 101.557 51.0349 101.616 51.0652L101.794 51.1585C101.854 51.1904 101.914 51.2232 101.975 51.2568L102.158 51.3603L102.344 51.4691C102.407 51.5063 102.47 51.5443 102.533 51.5833L102.723 51.7031L102.915 51.8285C105.074 53.2611 107.571 55.7795 109.479 60.1985L109.565 60.3997L109.69 60.7491L109.91 61.3475L110.189 62.0907L110.437 62.7384L110.664 63.3227L110.916 63.9627L111.136 64.513L111.371 65.0958L111.622 65.7097C111.665 65.8146 111.709 65.9206 111.753 66.0279L112.027 66.6859L112.317 67.3715C114.789 73.1965 118.82 81.7523 123.971 89.3865" stroke="#000001" stroke-width="0.5" stroke-linecap="round" stroke-linejoin="round"/>
<path d="M101.598 95.4696L105.352 69.3774" stroke="#000001" stroke-width="0.5" stroke-linecap="round" stroke-linejoin="round"/>
<path d="M138.108 98.5215C139.589 99.7381 140.838 101.211 141.795 102.87" stroke="#000001" stroke-width="0.5" stroke-linecap="round" stroke-linejoin="round"/>
<path d="M135.458 101.239C136.988 102.74 138.333 104.419 139.463 106.239" stroke="#000001" stroke-width="0.5" stroke-linecap="round" stroke-linejoin="round"/>
<path d="M133.188 104.386C134.474 105.978 135.647 107.658 136.697 109.414" stroke="#000001" stroke-width="0.5" stroke-linecap="round" stroke-linejoin="round"/>
<path d="M133.518 112.471L134.469 114.523" stroke="#000001" stroke-width="0.5" stroke-linecap="round" stroke-linejoin="round"/>
<path d="M116.182 118.178C115.054 116.107 113.682 114.177 112.095 112.43" stroke="#000001" stroke-width="0.5" stroke-linecap="round" stroke-linejoin="round"/>
<path d="M113.139 121.176C113.139 121.176 110.932 117.317 110.125 116.569" stroke="#000001" stroke-width="0.5" stroke-linecap="round" stroke-linejoin="round"/>
<path d="M110.722 124.453C109.97 122.802 109.058 121.23 107.998 119.757" stroke="#000001" stroke-width="0.5" stroke-linecap="round" stroke-linejoin="round"/>
<path d="M96.8028 48.6099L99.4483 53.6759L96.8028 58.0894L94.6505 54.2575L91.3021 54.801L87.3761 53.6107L84.1749 56.2821C84.1749 56.2821 80.3933 52.6812 79.6931 48.4444C81.6501 46.3951 83.0808 45.2362 83.9851 44.9678C84.5879 45.1438 85.2278 45.3145 85.905 45.4798" stroke="#000001" stroke-width="0.5" stroke-linecap="round" stroke-linejoin="round"/>
<path d="M95.5472 94.6801C95.4099 94.6655 95.2867 94.765 95.2722 94.9023C95.2576 95.0396 95.357 95.1627 95.4943 95.1773L95.5472 94.6801ZM101.62 95.5769L101.594 95.8255C101.728 95.8397 101.849 95.7456 101.868 95.6124L101.62 95.5769ZM102.238 93.0306C102.258 92.894 102.163 92.7673 102.027 92.7477C101.89 92.728 101.763 92.8229 101.744 92.9596L102.238 93.0306ZM95.4943 95.1773L101.594 95.8255L101.647 95.3283L95.5472 94.6801L95.4943 95.1773ZM101.868 95.6124L102.238 93.0306L101.744 92.9596L101.373 95.5414L101.868 95.6124Z" fill="#000001"/>
<path d="M108.481 102.112C105.345 98.8234 102.866 95.6078 101.991 92.9951" stroke="#000001" stroke-width="0.5" stroke-linecap="round" stroke-linejoin="round"/>
<path d="M80.5958 61.8538C80.5958 61.8538 74.7191 85.4158 101.22 98.1724L108.707 102.434L98.4547 118.294L86.7013 111.973C86.7013 111.973 65.4994 103.466 60.3148 74.9637" stroke="#000001" stroke-width="0.5" stroke-linecap="round" stroke-linejoin="round"/>
<path d="M9.94357 220.836C9.94357 220.836 26.8598 230.606 56.9844 228.535" stroke="#000001" stroke-width="0.5" stroke-linecap="round" stroke-linejoin="round"/>
<path d="M13.5643 212.89C13.5643 212.89 19.1631 214.67 17.9589 224.192" stroke="#000001" stroke-width="0.5" stroke-linecap="round" stroke-linejoin="round"/>
<path d="M44.6943 220.836C44.6943 220.836 39.6077 218.184 30.8512 219.205" stroke="#000001" stroke-width="0.5" stroke-linecap="round" stroke-linejoin="round"/>
<path d="M88.6561 231.655L132.294 231.026" stroke="#000001" stroke-width="0.5" stroke-linecap="round" stroke-linejoin="round"/>
<path d="M117.512 221.861C117.512 221.861 115.086 221.108 109.676 221.95" stroke="#000001" stroke-width="0.5" stroke-linecap="round" stroke-linejoin="round"/>
<path fill-rule="evenodd" clip-rule="evenodd" d="M130.209 119.733L122.305 164.111H204.577L210.751 119.733H130.209Z" fill="white"/>
<path fill-rule="evenodd" clip-rule="evenodd" d="M130.209 119.733L122.305 164.111H204.577L210.751 119.733H130.209V119.733Z" stroke="#000001" stroke-width="0.5" stroke-linecap="round" stroke-linejoin="round"/>
<ellipse cx="149.418" cy="142.141" rx="2.76459" ry="2.75765" fill="#102030"/>
<ellipse cx="165.709" cy="142.141" rx="2.76458" ry="2.75765" fill="#102030"/>
<ellipse cx="181.928" cy="142.141" rx="2.76459" ry="2.75765" fill="#102030"/>
<ellipse cx="212.84" cy="120.615" rx="24.3797" ry="24.0992" fill="#FD9043"/>
<path fill-rule="evenodd" clip-rule="evenodd" d="M224.302 119.606C224.302 119.606 224.302 105.612 214.367 105.056C214.367 105.056 202.073 103.735 201.421 120.012C201.421 120.012 200.037 135.921 212.496 136.199C212.496 136.196 224.546 136.196 224.302 119.606ZM218.069 120.708C217.743 129.13 213.61 129.13 213.61 129.13C206.871 129.13 208.137 120.708 208.137 120.708C208.868 111.357 214.041 112.447 214.041 112.447C218.639 112.406 218.069 120.705 218.069 120.705V120.708Z" fill="white"/>
<defs>
<linearGradient id="paint0_linear_1914_6896" x1="130.858" y1="202.499" x2="70.4443" y2="275.855" gradientUnits="userSpaceOnUse">
<stop stop-color="#FFC000"/>
<stop offset="1" stop-color="#FF8A00"/>
</linearGradient>
<linearGradient id="paint1_linear_1914_6896" x1="141.463" y1="86.1095" x2="78.0428" y2="102.899" gradientUnits="userSpaceOnUse">
<stop stop-color="#FFC000"/>
<stop offset="1" stop-color="#FF8A00"/>
</linearGradient>
</defs>
</svg>
